<svg viewBox="0 0 158 30" fill="none" xmlns="http://www.w3.org/2000/svg">
<path d="M0 8C0 3.58 3.58 0 8 0H150C154.42 0 158 3.58 158 8V22C158 26.42 154.42 30 150 30H8C3.58 30 0 26.42 0 22V8Z" fill="#FFDD2D"></path>
<path opacity="0.8" d="M82.0299 13.77C83.3299 13.77 84.2199 14.6 84.3199 15.76H83.1299C83.0799 15.1 82.6499 14.67 82.0299 14.67C81.2299 14.67 80.7599 15.35 80.7599 16.46C80.7599 17.57 81.2299 18.25 82.0299 18.25C82.6499 18.25 83.0699 17.76 83.1199 17.07H84.3199C84.2199 18.3 83.3399 19.15 82.0299 19.15C80.5299 19.15 79.5599 18.11 79.5599 16.46C79.5599 14.81 80.5299 13.77 82.0299 13.77ZM73.3599 16.53V18.15H74.4199C75.0599 18.15 75.3899 17.89 75.3899 17.34C75.3899 16.79 75.0599 16.53 74.4199 16.53H73.3599ZM73.3599 15.68H74.5399C75.8399 15.68 76.5399 16.28 76.5399 17.34C76.5399 18.4 75.8399 19 74.5399 19H72.2199V13.92H73.3599V15.68ZM71.5299 14.79H69.8599V19H68.7099V14.79H67.0299V13.92H71.5299V14.79ZM66.3299 19H65.1799V17.08C65.1799 16.37 65.1999 15.65 65.2299 14.94H65.2099C64.9099 15.6 64.5599 16.28 64.1899 16.94L63.0199 19H61.3299V13.92H62.4799V15.85C62.4799 16.55 62.4599 17.27 62.4199 17.98H62.4399C62.7499 17.32 63.0999 16.64 63.4699 15.98L64.6399 13.92H66.3299V19ZM60.6399 14.79H58.9699V19H57.8199V14.79H56.1399V13.92H60.6399V14.79ZM54.4899 16.84V16.59C54.1499 16.61 53.6599 16.66 53.3199 16.72C52.5899 16.84 52.3199 17.06 52.3199 17.52C52.3199 17.98 52.6399 18.27 53.2199 18.27C53.5699 18.27 53.9099 18.16 54.1399 17.93C54.4099 17.65 54.4899 17.38 54.4899 16.84ZM53.4999 13.77C54.8399 13.77 55.5899 14.43 55.5899 15.76V17.66C55.5899 18.26 55.6399 18.68 55.7199 19H54.6899C54.6399 18.78 54.6199 18.53 54.6199 18.29H54.5999C54.2299 18.83 53.6599 19.11 52.8899 19.11C51.8299 19.11 51.1699 18.47 51.1699 17.6C51.1699 16.73 51.6599 16.23 53.1199 16C53.5299 15.93 54.1299 15.87 54.4899 15.85V15.65C54.4899 14.9 54.0799 14.6 53.4999 14.6C52.8699 14.6 52.5299 14.95 52.4999 15.49H51.3799C51.4299 14.53 52.1299 13.77 53.4999 13.77ZM50.1399 19H48.9999V14.79H47.5399C47.4599 18.39 46.8999 19.05 45.7399 19.05C45.5699 19.05 45.4299 19.03 45.2999 19V18.17C45.3499 18.18 45.4199 18.19 45.4899 18.19C46.1499 18.19 46.4099 17.58 46.4699 13.92H50.1399V19ZM44.6099 19H43.4699V14.79H41.2799V19H40.1399V13.92H44.6099V19ZM35.7099 12.8C34.4399 12.8 33.6499 13.81 33.6499 15.44C33.6499 17.07 34.4399 18.08 35.7099 18.08C36.9799 18.08 37.7699 17.07 37.7699 15.44C37.7699 13.81 36.9799 12.8 35.7099 12.8ZM35.7099 11.73C37.7499 11.73 39.0099 13.15 39.0099 15.44C39.0099 17.73 37.7499 19.15 35.7099 19.15C33.6699 19.15 32.4099 17.73 32.4099 15.44C32.4099 13.15 33.6699 11.73 35.7099 11.73Z" fill="black"></path>
<path d="M118.52 7.5H97.48C93.35 7.5 90 10.86 90 15C90 19.14 93.35 22.5 97.48 22.5H118.52C122.65 22.5 126 19.14 126 15C126 10.86 122.65 7.5 118.52 7.5Z" fill="#303030"></path>
<path d="M106.97 15.15V13.93H108.29C108.57 13.93 108.73 13.96 108.86 14.01C109.09 14.1 109.2 14.31 109.2 14.54C109.2 14.77 109.07 15.01 108.82 15.09C108.7 15.13 108.56 15.15 108.29 15.15H106.97ZM108.5 12.78H105.51V17.56H106.96V16.27H108.49C108.85 16.27 109.2 16.27 109.54 16.15C110.2 15.94 110.69 15.35 110.69 14.55C110.69 13.75 110.21 13.16 109.56 12.93C109.2 12.8 108.86 12.78 108.49 12.78H108.5Z" fill="white"></path>
<path d="M112.42 16.87H114.62L114.9 17.56H116.53L114.58 12.78H112.46L110.51 17.56H112.15L112.42 16.87ZM112.78 15.81L113.47 13.88H113.58L114.27 15.81H112.78Z" fill="white"></path>
<path d="M120.07 12.78L118.89 14.96H118.84L117.65 12.78H115.96L118.11 16.29V17.56H119.61V16.17L121.66 12.78H120.07Z" fill="white"></path>
<path d="M94.3401 11.3601H102.41V15.4301C102.41 16.4701 101.85 17.4401 100.95 17.9601L98.3701 19.4501L95.7901 17.9601C94.8901 17.4401 94.3301 16.4701 94.3301 15.4301V11.3601" fill="#FFDD2D"></path>
<path fill-rule="evenodd" clip-rule="evenodd" d="M96.5601 13.5V14.77C96.7301 14.57 97.0501 14.44 97.4101 14.44H97.8001V15.91C97.8001 16.3 97.6901 16.64 97.5401 16.83H99.2401C99.0801 16.64 98.9801 16.3 98.9801 15.91V14.44H99.3701C99.7301 14.44 100.04 14.57 100.22 14.77V13.5H96.5801" fill="#333333"></path>
</svg>
