<svg  viewBox="0 0 98 35" xmlns="http://www.w3.org/2000/svg" xmlns:xlink="http://www.w3.org/1999/xlink" ><path d="M24.42 13.6H1.55L0 18.14h22.88l1.54-4.54Zm2.48-6.8H4.12l-1.65 4.54h22.88L26.9 6.8ZM29.47 0H6.6L4.95 4.53h22.87L29.47 0Z" fill="#0AF"></path><path d="M40.3 34 31.73 6.8h5.98l3.3 11.85c.92 3.5 1.44 5.36 2.06 8.35.61-2.78.92-4.12 2.06-8.14l3.3-12.06h5.76L45.65 34H40.3Zm22.97 0V11.35h-7.83V6.8H77.3l-1.55 4.54h-7V34h-5.47ZM84.4 17.73h3.09c.93 0 1.44 0 1.85-.1 1.24-.41 2.07-1.54 2.07-3.09 0-1.85-.83-2.68-2.07-2.99-.51-.1-1.03-.2-2.06-.2H84.4v6.38Zm.1 4.64v7.11h3.81c1.14 0 2.17-.1 2.89-.82a3.8 3.8 0 0 0 1.13-2.78c0-.93-.2-1.76-.72-2.37-.82-1.04-1.75-1.24-3.5-1.24h-3.6v.1Zm8.66-2.78a16.8 16.8 0 0 1 2.57 1.55c1.65 1.33 2.27 3.09 2.27 5.35 0 3.71-1.96 6.4-5.25 7.22-1.04.3-2.07.4-3.92.4h-9.9V6.8h8.77c1.75 0 2.98.1 4.12.41 3.2.83 5.25 3 5.25 6.5 0 1.85-.61 3.4-1.75 4.43-.51.4-1.13.92-2.16 1.44Z" fill="#0A2896"></path></svg>